PathFileType	4	(X/Y/Z)	/Users/niels/Desktop/University/Third Semester/Perception and Action/Exam/Gymnastics Motion Tracking/Code for Gym Tracking/Analyzed Data/Webcam_Backflip/id5_1_trajectory_Sports2D/id5_1_trajectory_Sports2D_px_person00.trc
DataRate	CameraRate	NumFrames	NumMarkers	Units	OrigDataRate	OrigDataStartFrame	OrigNumFrames
29.76190476190476	29.76190476190476	8	22	m	29.76190476190476	94	126
Frame#	Time	Hip			RHip			RKnee			RAnkle			RBigToe			RSmallToe			RHeel			LHip			LKnee			LAnkle			LBigToe			LSmallToe			LHeel			Neck			Head			Nose			RShoulder			RElbow			RWrist			LShoulder			LElbow			LWrist		
		X1	Y1	Z1	X2	Y2	Z2	X3	Y3	Z3	X4	Y4	Z4	X5	Y5	Z5	X6	Y6	Z6	X7	Y7	Z7	X8	Y8	Z8	X9	Y9	Z9	X10	Y10	Z10	X11	Y11	Z11	X12	Y12	Z12	X13	Y13	Z13	X14	Y14	Z14	X15	Y15	Z15	X16	Y16	Z16	X17	Y17	Z17	X18	Y18	Z18	X19	Y19	Z19	X20	Y20	Z20	X21	Y21	Z21	X22	Y22	Z22
94	3.1584000000000003	0.8068529191401471	-0.576270493025125	0.0	0.7491448648839397	-0.5876173537491705	0.0	0.7711236316062634	-0.8272538752134461	0.0	0.8055004565651811	-1.0463869758659812	0.0	0.8014867833844784	-1.0949743198858737	0.0	0.7716350806536432	-1.088438223749294	0.0	0.823004194407905	-1.0675496114335856	0.0	0.8659581303459998	-0.5807189501515975	0.0	0.8907054783261217	-0.8180058441047641	0.0	0.8836757002283251	-1.0246058603846424	0.0	0.8716506346992136	-1.0875922985263888	0.0	0.9052003088193085	-1.0816095042427756	0.0	0.8779687729321207	-1.0393523823438473	0.0	0.7801601902040076	-0.19087586316721944	0.0	0.768232452738859	-0.032274887453801346	0.0	0.7737338458285867	-0.11898318168857193	0.0	0.6803205837123525	-0.272557059081719	0.0	0.6637866782580661	-0.44302223813017194	0.0	0.6292646972701716	-0.5812641789991195	0.0	0.8965812403257194	-0.25522122887027887	0.0	0.9203897898998521	-0.4270896026509686	0.0	0.9308762488688634	-0.5670751152531573	0.0
95	3.1920000000000006	0.8017982375480603	-0.5787131883391343	0.0	0.7445474212909121	-0.5896719053482176	0.0	0.7695662863931207	-0.8308460321265898	0.0	0.8058387682285958	-1.0477348952349108	0.0	0.7919506914732098	-1.0959924306409061	0.0	0.7657333969067236	-1.0893865500070086	0.0	0.8249643559940136	-1.0670574023564359	0.0	0.8607100686451674	-0.5826868567062574	0.0	0.8791427130479557	-0.8245742404795456	0.0	0.8737547282687776	-1.0434896206730266	0.0	0.8538828314669847	-1.0966424884615198	0.0	0.8867498128244318	-1.0942923241539115	0.0	0.8710782394427453	-1.059241075163243	0.0	0.7756852016228472	-0.18591577415601504	0.0	0.7651433481690256	-0.026327043054436616	0.0	0.7700528781269277	-0.11340986362254533	0.0	0.6737805073077238	-0.26821902153308363	0.0	0.6568519509118111	-0.4393561360196815	0.0	0.6234630400416681	-0.5743154333658147	0.0	0.8928761697143526	-0.25179693343642273	0.0	0.91599447798653	-0.4265543796265914	0.0	0.9253345042345966	-0.5682240568693335	0.0
96	3.2256000000000005	0.7963554022291041	-0.5820286893080058	0.0	0.7397049662591846	-0.5919970630049118	0.0	0.7678019843748528	-0.8357420153394705	0.0	0.8063287033030647	-1.0491493456224799	0.0	0.7834854631251424	-1.0963963258737663	0.0	0.7606313929750899	-1.0901147582666733	0.0	0.8276528785846414	-1.0663826555245588	0.0	0.8546898859722687	-0.5850410891890759	0.0	0.8671557178438157	-0.8324443951595502	0.0	0.8620369007783966	-1.0576904162491036	0.0	0.8350754542258755	-1.1036312381078395	0.0	0.8675147463783708	-1.1045270472275177	0.0	0.8627441087559526	-1.073703943851591	0.0	0.7718800837110152	-0.18129635926832982	0.0	0.7624468755599672	-0.021276753043293847	0.0	0.7667838997920298	-0.10838321195446449	0.0	0.6678429620758095	-0.26419069664780515	0.0	0.6502282406642896	-0.43532709697665356	0.0	0.6182648378306592	-0.5670370575537759	0.0	0.890248711162504	-0.24872901694607724	0.0	0.9134158850985958	-0.42624040062351354	0.0	0.9216640269673986	-0.5703966703431975	0.0
97	3.2592000000000003	0.7906478280737708	-0.5858430171936875	0.0	0.7345011778911891	-0.5943280721992054	0.0	0.7655174199016769	-0.8420193259704039	0.0	0.8068389001012496	-1.0502559952845312	0.0	0.777750788690305	-1.0960876789239322	0.0	0.757180296159749	-1.0907252428565284	0.0	0.8308708760362173	-1.0651865371310083	0.0	0.8482645104872508	-0.5875471273489251	0.0	0.8555859030779807	-0.8406982207683196	0.0	0.849027189384023	-1.0672152578782808	0.0	0.8162495144420894	-1.108974482079781	0.0	0.849435516431712	-1.1123940601252569	0.0	0.8526089239791577	-1.0827479452649353	0.0	0.7688583027433646	-0.1770790590416635	0.0	0.7600874099282118	-0.016975279567530185	0.0	0.7639986958586084	-0.10371923408336577	0.0	0.662638727260228	-0.2602986502957131	0.0	0.6438937826292163	-0.4312759476548277	0.0	0.6132813796682216	-0.5603424373196497	0.0	0.8887823476607465	-0.24600354296945826	0.0	0.9126507889182246	-0.4263645333700103	0.0	0.9197033097842761	-0.5734187411753916	0.0
98	3.2928000000000006	0.7848565002833068	-0.5896635337502326	0.0	0.7289298435111609	-0.596434323774564	0.0	0.7621175761179009	-0.8493522904996622	0.0	0.8069964263790794	-1.0502437368569393	0.0	0.7754096472813374	-1.0950421240098016	0.0	0.7556538688492166	-1.0909631305426464	0.0	0.8339591397399666	-1.0628817910637636	0.0	0.8419673931580232	-0.5901105493054571	0.0	0.8451849528774417	-0.8485352217334682	0.0	0.8359021310764023	-1.0731636020792468	0.0	0.7985494209032767	-1.1133070227844895	0.0	0.8339465744551223	-1.1180108801792754	0.0	0.8413413516832401	-1.0875719350997994	0.0	0.7667265405838066	-0.1732482335409169	0.0	0.7582752316481143	-0.013093948112916403	0.0	0.7618702463590035	-0.09909752056712362	0.0	0.6582404677693326	-0.256191990023124	0.0	0.6378518507693797	-0.4275039551601548	0.0	0.6081912371804351	-0.5551014375972285	0.0	0.8883526049825723	-0.2434838835737751	0.0	0.9133697310170761	-0.4268854410398087	0.0	0.919386477582427	-0.5768301002779802	0.0
99	3.3264000000000005	0.7791272646397924	-0.5929074211188263	0.0	0.7230355276853636	-0.5980042219971323	0.0	0.7566329484196165	-0.8569485583558744	0.0	0.8061812087136312	-1.0480742408724397	0.0	0.7756822673632563	-1.093392255004972	0.0	0.7554658195368283	-1.0903054474870577	0.0	0.8357133413030825	-1.0588146185863876	0.0	0.8362489799379509	-0.5925046024650983	0.0	0.8365496376959268	-0.8554858152146366	0.0	0.8242534808482239	-1.0768931935818273	0.0	0.7834700693543093	-1.117441221859861	0.0	0.8215992576793821	-1.1214706842089506	0.0	0.830559282534684	-1.0896284728902028	0.0	0.7654411597655706	-0.16960890303094284	0.0	0.7573655962312997	-0.009261386742551581	0.0	0.7605414042504997	-0.09411717603586506	0.0	0.654560962401773	-0.2514192854032148	0.0	0.6321235289466403	-0.42414866004848634	0.0	0.6028253424435032	-0.5519228022331242	0.0	0.8886586166401416	-0.24082599579428204	0.0	0.915039503905865	-0.4273764823769137	0.0	0.9206420606336371	-0.57996640766926	0.0
100	3.3600000000000003	0.7735173495714062	-0.5951025536508079	0.0	0.7167692931906449	-0.5986578975086037	0.0	0.7478666466354742	-0.8638318214578361	0.0	0.8037462897518578	-1.0432156956567387	0.0	0.7766396376682988	-1.0914847862412547	0.0	0.7553020209115943	-1.0884324273817017	0.0	0.8348404033953395	-1.052727922352233	0.0	0.831313070213492	-0.5942944430400411	0.0	0.8300271700604898	-0.861460822110277	0.0	0.8153948398183227	-1.0794344009688293	0.0	0.7722769299739002	-1.1219706937733886	0.0	0.8119635330704504	-1.12295365123966	0.0	0.8218363915759497	-1.0898498578543483	0.0	0.7647959618668267	-0.1658250425927241	0.0	0.7576090090220288	-0.005206692981249019	0.0	0.7600081904660501	-0.08840217364850297	0.0	0.6513601448468117	-0.24557128552220028	0.0	0.626771755050256	-0.421106724714763	0.0	0.5971846728323422	-0.5510085136904983	0.0	0.8893185878677765	-0.23762264059017713	0.0	0.9171291942205076	-0.4271745323792932	0.0	0.9231576369017798	-0.5821224722525831	0.0
101	3.3936000000000006	0.7679830420419348	-0.5960905382442468	0.0	0.7099462298931002	-0.5981760109442487	0.0	0.7347942924484752	-0.8693303495959149	0.0	0.7991953337171795	-1.0361908937247057	0.0	0.7759655549865176	-1.0899187505247026	0.0	0.7535569391947511	-1.0856144371055452	0.0	0.8305893018338208	-1.0451271358564234	0.0	0.8271000736437222	-0.5950990324001669	0.0	0.8255891224563091	-0.8666936826645112	0.0	0.8097776287461087	-1.0813012039463992	0.0	0.7652669166710641	-1.126765277265044	0.0	0.8040475864124319	-1.122756352526751	0.0	0.8157687475969115	-1.088532358021894	0.0	0.7645200627718098	-0.16161188177408908	0.0	0.7589082112489727	-0.0008636324907349091	0.0	0.7600613145598392	-0.08178723101837929	0.0	0.6483405196246363	-0.23852001363437275	0.0	0.6218615086684788	-0.4181730790499659	0.0	0.591365819792199	-0.5521129514692663	0.0	0.8899873171372505	-0.23367472348930848	0.0	0.9192671783274042	-0.42576392991527356	0.0	0.9262127374974699	-0.5827634729749023	0.0
